<?xml version="1.0" standalone="no"?><!DOCTYPE svg PUBLIC "-//W3C//DTD SVG 1.1//EN" "http://www.w3.org/Graphics/SVG/1.1/DTD/svg11.dtd"><svg t="1515988365794" class="icon" style="" viewBox="0 0 1024 1024" version="1.1" xmlns="http://www.w3.org/2000/svg" p-id="3762" xmlns:xlink="http://www.w3.org/1999/xlink" width="48" height="48"><defs><style type="text/css"></style></defs><path d="M198.977285 603.376127c-14.812357 0-28.018124-10.480702-30.928407-25.565259-4.16281-21.596877-6.27696-43.795459-6.27696-65.982784 0-191.268208 155.612127-346.876242 346.880335-346.876242 153.339364 0 290.316062 102.726639 333.100494 249.809509 4.865821 16.721847-4.753257 34.223452-21.474081 39.084157-16.721847 4.865821-34.223452-4.748141-39.08825-21.468964-35.004235-120.321366-147.06752-204.356294-272.53714-204.356294-156.490124 0-283.812951 127.316687-283.812951 283.807834 0 18.189268 1.729387 36.369326 5.13802 54.035684 3.300162 17.101493-7.888667 33.638121-24.990161 36.938284C202.970226 603.190909 200.958406 603.376127 198.977285 603.376127z" p-id="3763"></path><path d="M508.652254 858.703303c-125.202537 0-241.140059-67.861574-302.55685-177.097464-8.535397-15.181771-3.146667-34.407648 12.036128-42.943045 15.186887-8.541537 34.408671-3.151783 42.943045 12.035104 50.262754 89.398076 145.132448 144.93802 247.576655 144.93802 151.778822 0 276.293697-118.639051 283.46912-270.089391 0.821715-17.394159 15.479553-30.826076 33.002648-30.004361 17.388019 0.825808 30.825053 15.598256 30.004361 32.992415C846.341253 713.673186 694.152085 858.703303 508.652254 858.703303z" p-id="3764"></path><path d="M234.037802 679.808914c-88.618317 0-159.847591-15.977903-170.779571-63.017242-5.943362-25.564235 7.129374-52.064796 38.85903-78.758762 11.106965-9.341762 27.679409-7.918343 37.026288 3.192715 9.340739 11.101849 7.91425 27.679409-3.192715 37.026288-21.156856 17.800411-21.494547 26.632567-21.48943 26.714432 8.021697 20.067035 147.71425 45.735647 414.712233-16.269545 266.941702-62.021565 381.037273-146.646941 379.354957-168.347173l0 0c-0.030699 0-3.551896-6.457062-24.77015-12.68695-13.929244-4.091178-21.904892-18.692734-17.809621-32.617885 4.074805-13.929244 18.672268-21.905916 32.612769-17.814738 35.085076 10.3006 55.665811 27.561729 61.179384 51.299363 23.373337 100.632955-263.647679 195.33892-418.680615 231.358275C458.49797 659.068544 334.989005 679.80482 234.037802 679.808914z" p-id="3765"></path><path d="M481.491661 481.894332c-2.535753 0-5.163603-0.35918-7.904017-1.103124-11.311627-3.079128-19.288299-12.599969-20.817118-24.841781-0.61603-4.891404-1.509377-10.244318-2.422166-15.751752-2.073218-12.502755-4.41352-26.673499-4.41352-39.479153 0-8.15575-3.470031-29.67588-6.405897-45.166689-5.686513-7.642051-13.663184-15.089673-17.307178-15.818267-0.061398 0-0.122797 0-0.185218 0-22.387893 0-35.722596-5.369288-48.615231-10.55745-2.411933-0.975211-4.906753-1.981121-7.585769-2.987031-27.243481-10.208503-36.020378-48.245817-38.524408-64.120366-2.258437-14.335497 7.52437-27.792996 21.864984-30.05041 14.381545-2.258437 27.777647 7.519254 30.045293 21.833261 1.468444 8.981559 5.051039 19.929912 7.791453 24.168446 2.093684 0.810459 4.095271 1.616824 6.046716 2.402723 10.860349 4.372587 16.844643 6.78452 29.594015 6.78452 34.613332 0 59.310827 36.70804 63.919798 44.067658 1.684362 2.689249 2.864234 5.666046 3.479241 8.782014 1.313925 6.554276 7.483438 38.190811 8.335852 56.713676 4.445242-5.497201 7.55507-8.827039 10.942213-11.362792 2.350534-1.765203 5.747911-3.895727 9.649777-6.256494 3.438309-2.073218 10.089799-6.096858 13.098319-8.894577 0.23536-5.953595-0.040932-18.092054-0.246617-26.576285-0.74906-32.073486-0.666172-46.099944 3.233648-55.82647 2.01182-5.030573 7.359618-18.415418 53.101405-44.48926 1.857301-1.062192 3.839445-1.889023 5.90243-2.469238l57.402361-16.146749c13.991666-3.936659 28.485775 4.213975 32.407084 18.185174 3.931542 13.970176-4.207835 28.480658-18.180058 32.412201l-54.218856 15.248286c-10.706853 6.287193-21.936615 13.852496-27.26497 18.302855-0.430812 8.006348-0.071631 23.568788 0.164752 33.55114 0.430812 18.476817 0.636496 30.194696-0.462534 37.877679-3.295046 22.968108-24.850991 36.009122-37.733393 43.800575-1.674129 1.011027-3.213181 1.89414-4.435009 2.705622-2.165316 2.422166-6.959505 8.658194-10.552334 13.32447C512.338203 464.658785 499.064898 481.894332 481.491661 481.894332z" p-id="3766"></path><path d="M616.969215 837.397045c-2.042519 0-4.115738-0.23536-6.189979-0.738827-14.104229-3.402493-22.777773-17.599843-19.379373-31.708166l11.670807-48.332798-8.961092-18.410302-9.464559 17.814738c-4.055362 7.631818-11.610432 12.785188-20.190855 13.775748l-43.810808 5.060249-51.499931 42.620703c-11.168364 9.248641-27.746948 7.693216-36.995589-3.485381-9.258874-11.183713-7.688099-27.745924 3.490497-36.999682l57.494459-47.588855c3.911076-3.243881 8.683776-5.281283 13.734816-5.861498l37.836747-4.372587 27.224038-51.243081c4.63967-8.729825 13.723559-14.22191 23.671119-13.944594 9.895371 0.173962 18.84623 5.886057 23.168676 14.775518l35.691897 73.354682c2.667759 5.485945 3.346211 11.733229 1.918699 17.661242l-13.878079 57.503669C639.593492 829.313949 628.82524 837.397045 616.969215 837.397045z" p-id="3767"></path></svg>